<?xml version="1.0" encoding="UTF-8"?> <svg xmlns="http://www.w3.org/2000/svg" xmlns:xlink="http://www.w3.org/1999/xlink" id="Слой_1" data-name="Слой 1" viewBox="0 0 300 300"> <defs> <style>.cls-1,.cls-5{fill:none;}.cls-2{clip-path:url(#clip-path);}.cls-3{fill:#fcedc2;}.cls-4{clip-path:url(#clip-path-2);}.cls-5{stroke:#083a59;stroke-miterlimit:10;stroke-width:1.69px;}.cls-6{fill:#f9f6ed;}.cls-7{fill:#083a59;}</style> <clipPath id="clip-path"> <rect class="cls-1" width="300" height="300"></rect> </clipPath> <clipPath id="clip-path-2"> <path class="cls-1" d="M147.75-3a151.77,151.77,0,0,0-32.57,300h65.14A151.94,151.94,0,0,0,296,181.31V116.19A151.81,151.81,0,0,0,147.75-3Z"></path> </clipPath> </defs> <g class="cls-2"> <path class="cls-3" d="M150,300A150,150,0,1,0,0,150,150,150,0,0,0,150,300"></path> </g> <g class="cls-4"> <path class="cls-3" d="M248.06,201.86H8.7c3.66,0,3-.24,2.45-.64L73.76,170a109.09,109.09,0,0,1,10.64-4.6A107.45,107.45,0,0,1,162,166.58Z"></path> <path class="cls-5" d="M248.06,201.86H8.7c3.66,0,3-.24,2.45-.64L73.76,170a109.09,109.09,0,0,1,10.64-4.6A107.45,107.45,0,0,1,162,166.58Z"></path> <path class="cls-6" d="M73.76,170A108.28,108.28,0,0,1,84.4,165.4h0c4.57,16.84,18.53,30.49,36.78,36.46H13.09a3.25,3.25,0,0,1-1.94-.64Z"></path> <path class="cls-5" d="M73.76,170A108.28,108.28,0,0,1,84.4,165.4h0c4.57,16.84,18.53,30.49,36.78,36.46H13.09a3.25,3.25,0,0,1-1.94-.64Z"></path> <path class="cls-7" d="M100.3,67.09l-1.56-6.34a2.42,2.42,0,0,1,4.7-1.15L105,65.93a2.42,2.42,0,0,1-1.77,2.93,3,3,0,0,1-.58.07,2.42,2.42,0,0,1-2.35-1.84"></path> <path class="cls-7" d="M129,175.92a2.42,2.42,0,0,1-2.35-1.84l-17-69a2.42,2.42,0,1,1,4.7-1.15l17,69a2.42,2.42,0,0,1-1.77,2.93,2.3,2.3,0,0,1-.58.07"></path> <path class="cls-3" d="M95.55,108.55l32.92-8.11,8.36-10.29,16.33,4.2,12.33-3a3.22,3.22,0,0,0,1.67-5.24c-14.07-16.44-41.64-25.2-64.51-19.56s-43.21,26.2-48,47.3a3.23,3.23,0,0,0,3.92,3.86l12.32-3,12.35-9.09Z"></path> <path class="cls-5" d="M95.55,108.55l32.92-8.11,8.36-10.29,16.33,4.2,12.33-3a3.22,3.22,0,0,0,1.67-5.24c-14.07-16.44-41.64-25.2-64.51-19.56s-43.21,26.2-48,47.3a3.23,3.23,0,0,0,3.92,3.86l12.32-3,12.35-9.09Z"></path> <path class="cls-6" d="M102.65,66.51c7-1.72,18.53,13.57,25.82,33.92l24.69-6.08c-10.52-19.57-33.07-32.14-50.51-27.84S71.08,92.42,70.86,114.63l24.69-6.08c-3-21.42.12-40.32,7.1-42"></path> <path class="cls-5" d="M102.65,66.51c7-1.72,18.53,13.57,25.82,33.92l24.69-6.08c-10.52-19.57-33.07-32.14-50.51-27.84S71.08,92.42,70.86,114.63l24.69-6.08C92.55,87.13,95.67,68.23,102.65,66.51Z"></path> <path class="cls-3" d="M234.07,195.38l76.08,35.29h-225a3.16,3.16,0,0,1-1.93-.65l62.61-31.21a109.66,109.66,0,0,1,10.64-4.61,107.47,107.47,0,0,1,77.61,1.18"></path> <path class="cls-5" d="M234.07,195.38l76.08,35.29h-225a3.16,3.16,0,0,1-1.93-.65l62.61-31.21a109.66,109.66,0,0,1,10.64-4.61,107.47,107.47,0,0,1,77.61,1.18"></path> <path class="cls-6" d="M145.82,198.81a109.66,109.66,0,0,1,10.64-4.61h0c4.56,16.84,18.53,30.48,36.78,36.46H85.14a3.23,3.23,0,0,1-1.93-.65Z"></path> <path class="cls-5" d="M145.82,198.81a109.66,109.66,0,0,1,10.64-4.61h0c4.56,16.84,18.53,30.48,36.78,36.46H85.14a3.23,3.23,0,0,1-1.93-.65Z"></path> <path class="cls-7" d="M172.36,95.89l-1.56-6.33a2.42,2.42,0,1,1,4.7-1.16l1.56,6.33a2.43,2.43,0,0,1-1.78,2.93,2.25,2.25,0,0,1-.58.07,2.41,2.41,0,0,1-2.34-1.84"></path> <path class="cls-7" d="M201.07,204.72a2.42,2.42,0,0,1-2.34-1.84l-17-69a2.42,2.42,0,1,1,4.7-1.15l17,69a2.43,2.43,0,0,1-1.77,2.93,2.38,2.38,0,0,1-.59.07"></path> <path class="cls-3" d="M167.61,137.35l32.92-8.11L208.89,119l16.33,4.2,12.33-3a3.23,3.23,0,0,0,1.67-5.24c-14.07-16.43-41.64-25.2-64.51-19.56s-43.21,26.21-48,47.3a3.24,3.24,0,0,0,3.92,3.87l12.33-3h0l12.34-9.09,12.35,3Z"></path> <path class="cls-5" d="M167.61,137.35l32.92-8.11L208.89,119l16.33,4.2,12.33-3a3.23,3.23,0,0,0,1.67-5.24c-14.07-16.43-41.64-25.2-64.51-19.56s-43.21,26.21-48,47.3a3.24,3.24,0,0,0,3.92,3.87l12.33-3h0l12.34-9.09,12.35,3Z"></path> <path class="cls-6" d="M174.71,95.31c7-1.72,18.52,13.57,25.82,33.93l24.69-6.09C214.7,103.59,192.15,91,174.71,95.31s-31.57,25.91-31.79,48.13l24.68-6.09c-3-21.42.13-40.32,7.11-42"></path> <path class="cls-5" d="M174.71,95.31c7-1.72,18.52,13.57,25.82,33.93l24.69-6.09C214.7,103.59,192.15,91,174.71,95.31s-31.57,25.91-31.79,48.13l24.68-6.09C164.61,115.93,167.73,97,174.71,95.31Z"></path> </g> <line class="cls-5" x1="29.78" y1="216.9" x2="76.04" y2="216.9"></line> <line class="cls-5" x1="47.62" y1="221.79" x2="93.88" y2="221.79"></line> <line class="cls-5" x1="29.78" y1="226.67" x2="76.04" y2="226.67"></line> <line class="cls-5" x1="81.98" y1="248.87" x2="128.24" y2="248.87"></line> <line class="cls-5" x1="97.84" y1="267.33" x2="144.1" y2="267.33"></line> <line class="cls-5" x1="134.19" y1="261.17" x2="180.45" y2="261.17"></line> <line class="cls-5" x1="64.14" y1="255.02" x2="136.17" y2="255.02"></line> </svg> 