<?xml version="1.0" encoding="UTF-8"?> <svg xmlns="http://www.w3.org/2000/svg" xmlns:xlink="http://www.w3.org/1999/xlink" id="Слой_1" data-name="Слой 1" viewBox="0 0 300 300"> <defs> <style>.cls-1,.cls-5{fill:none;}.cls-2{clip-path:url(#clip-path);}.cls-3{fill:#80d1c7;}.cls-4{fill:#a3e440;}.cls-5{stroke:#083a59;stroke-miterlimit:10;stroke-width:1.68px;}.cls-6{fill:#083a59;}.cls-7{fill:#bbeae4;}</style> <clipPath id="clip-path"> <rect class="cls-1" width="300" height="300"></rect> </clipPath> </defs> <g class="cls-2"> <path class="cls-3" d="M148.77,302.45A151.23,151.23,0,1,0-2.45,151.23,151.22,151.22,0,0,0,148.77,302.45"></path> <path class="cls-4" d="M180.48,98.54c0,43.57-20,42.79-44.71,42.79s-44.7.78-44.7-42.79,25.22-92.71,44.7-92.71S180.48,55,180.48,98.54"></path> <path class="cls-3" d="M180.48,98.54c0,43.57-20,42.79-44.71,42.79s-44.7.78-44.7-42.79,25.22-92.71,44.7-92.71S180.48,55,180.48,98.54"></path> <path class="cls-5" d="M180.48,98.54c0,43.57-20,42.79-44.71,42.79s-44.7.78-44.7-42.79,25.22-92.71,44.7-92.71S180.48,55,180.48,98.54Z"></path> <path class="cls-6" d="M180.47,98.54c0,43.57-20,42.79-44.7,42.79-4,0-7.93,0-11.64-.13,19-.79,33.06-6.2,33.06-42.66,0-35.19-16.47-74-33.06-87.66,4-3.24,7.9-5.05,11.64-5.05,19.48,0,44.7,49.15,44.7,92.71"></path> <path class="cls-5" d="M180.47,98.54c0,43.57-20,42.79-44.7,42.79-4,0-7.93,0-11.64-.13,19-.79,33.06-6.2,33.06-42.66,0-35.19-16.47-74-33.06-87.66,4-3.24,7.9-5.05,11.64-5.05C155.25,5.83,180.47,55,180.47,98.54Z"></path> <path class="cls-3" d="M142.11,179.58v-60l20.58-11.49c2.48-1.38,2.48-3.62,0-5a10.23,10.23,0,0,0-9,0l-11.61,6.49V96.05h0v-16c0-2-2.84-3.54-6.34-3.54s-6.35,1.59-6.35,3.54V87.5l-9-5a10.23,10.23,0,0,0-9,0c-2.48,1.39-2.48,3.63,0,5l18,10v20.65h0v61.41"></path> <path class="cls-5" d="M142.11,179.58v-60l20.58-11.49c2.48-1.38,2.48-3.62,0-5a10.23,10.23,0,0,0-9,0l-11.61,6.49V96.05h0v-16c0-2-2.84-3.54-6.34-3.54s-6.35,1.59-6.35,3.54V87.5l-9-5a10.23,10.23,0,0,0-9,0c-2.48,1.39-2.48,3.63,0,5l18,10v20.65h0v61.41"></path> <path class="cls-6" d="M248.27,183.32v43.17a1.94,1.94,0,0,0,1.94,1.94h12.12a1.9,1.9,0,0,0,1.94-1.86V183.32Z"></path> <path class="cls-5" d="M248.27,183.32v43.17a1.94,1.94,0,0,0,1.94,1.94h12.12a1.9,1.9,0,0,0,1.94-1.86V183.32Z"></path> <path class="cls-6" d="M102.56,183.32v43.17a1.91,1.91,0,0,0,1.74,2h12.25a1.94,1.94,0,0,0,1.94-1.94V183.32Z"></path> <path class="cls-5" d="M102.56,183.32v43.17a1.91,1.91,0,0,0,1.74,2h12.25a1.94,1.94,0,0,0,1.94-1.94V183.32Z"></path> <path class="cls-6" d="M236.22,126.42h10.23a1.81,1.81,0,0,1,1.81,1.81V179.6a1.81,1.81,0,0,1-1.81,1.82H236.22a1.82,1.82,0,0,1-1.82-1.82V128.23a1.82,1.82,0,0,1,1.82-1.81"></path> <rect class="cls-5" x="234.4" y="126.42" width="13.86" height="55.01" rx="1.82"></rect> <path class="cls-6" d="M120.43,126.42h10.22a1.81,1.81,0,0,1,1.82,1.81V179.6a1.81,1.81,0,0,1-1.82,1.82H120.43a1.82,1.82,0,0,1-1.82-1.82V128.23a1.82,1.82,0,0,1,1.82-1.81"></path> <rect class="cls-5" x="118.61" y="126.42" width="13.86" height="55.01" rx="1.82"></rect> <path class="cls-3" d="M102.81,131.47H264.07a2.91,2.91,0,0,1,2.91,2.91v10.51a2.91,2.91,0,0,1-2.91,2.91H102.81a2.91,2.91,0,0,1-2.91-2.91V134.38a2.91,2.91,0,0,1,2.91-2.91"></path> <rect class="cls-5" x="99.9" y="131.47" width="167.08" height="16.33" rx="2.91"></rect> <path class="cls-3" d="M102.81,152.49H264.07a2.9,2.9,0,0,1,2.91,2.9V165.9a2.91,2.91,0,0,1-2.91,2.92H102.81a2.91,2.91,0,0,1-2.91-2.92V155.39a2.9,2.9,0,0,1,2.91-2.9"></path> <rect class="cls-5" x="99.9" y="152.49" width="167.08" height="16.33" rx="2.91"></rect> <path class="cls-3" d="M85.63,176.21h192.1a3,3,0,0,1,3,3v8.29a3,3,0,0,1-3,3H85.63a3,3,0,0,1-3-3V179.2a3,3,0,0,1,3-3"></path> <rect class="cls-5" x="82.64" y="176.21" width="198.08" height="14.27" rx="2.99"></rect> <path class="cls-7" d="M78,280.91A4.07,4.07,0,0,1,74,276.84v-61a4.07,4.07,0,1,1,8.13,0v61A4.07,4.07,0,0,1,78,280.91"></path> <path class="cls-5" d="M78,280.91A4.07,4.07,0,0,1,74,276.84v-61a4.07,4.07,0,1,1,8.13,0v61A4.07,4.07,0,0,1,78,280.91Z"></path> <path class="cls-6" d="M90.23,191.43C90.23,178,84.76,167,78,167S65.83,178,65.83,191.43s5.46,24.41,12.2,24.41,12.2-10.92,12.2-24.41"></path> <path class="cls-5" d="M90.23,191.43C90.23,178,84.76,167,78,167S65.83,178,65.83,191.43s5.46,24.41,12.2,24.41S90.23,204.92,90.23,191.43Z"></path> <path class="cls-7" d="M78,280.91A4.06,4.06,0,0,1,74.12,278a97.34,97.34,0,0,0-35.06-46.62,4.07,4.07,0,0,1,4.73-6.62,103.75,103.75,0,0,1,38.15,51,4.08,4.08,0,0,1-2.79,5,4.27,4.27,0,0,1-1.12.16"></path> <path class="cls-5" d="M78,280.91A4.06,4.06,0,0,1,74.12,278a97.34,97.34,0,0,0-35.06-46.62,4.07,4.07,0,0,1,4.73-6.62,103.75,103.75,0,0,1,38.15,51,4.08,4.08,0,0,1-2.79,5A4.27,4.27,0,0,1,78,280.91Z"></path> <path class="cls-7" d="M78,280.91a4.06,4.06,0,0,1-4-5.06c.35-1.39,8.89-34.41,38.53-51.34a4.07,4.07,0,0,1,4,7.06C90,246.8,82.05,277.53,82,277.83A4.07,4.07,0,0,1,78,280.91"></path> <path class="cls-5" d="M78,280.91a4.06,4.06,0,0,1-4-5.06c.35-1.39,8.89-34.41,38.53-51.34a4.07,4.07,0,0,1,4,7.06C90,246.8,82.05,277.53,82,277.83A4.07,4.07,0,0,1,78,280.91Z"></path> <path class="cls-7" d="M153.77,280.91a4.07,4.07,0,0,1-4.07-4.07v-61a4.07,4.07,0,1,1,8.13,0v61a4.07,4.07,0,0,1-4.06,4.07"></path> <path class="cls-5" d="M153.77,280.91a4.07,4.07,0,0,1-4.07-4.07v-61a4.07,4.07,0,1,1,8.13,0v61A4.07,4.07,0,0,1,153.77,280.91Z"></path> <path class="cls-6" d="M166,191.44c0-13.48-5.47-24.4-12.2-24.4s-12.2,10.92-12.2,24.4,5.46,24.4,12.2,24.4,12.2-10.92,12.2-24.4"></path> <path class="cls-5" d="M166,191.44c0-13.48-5.47-24.4-12.2-24.4s-12.2,10.92-12.2,24.4,5.46,24.4,12.2,24.4S166,204.92,166,191.44Z"></path> <path class="cls-7" d="M153.77,280.91a4.06,4.06,0,0,1-3.91-2.94,97.34,97.34,0,0,0-35.06-46.62,4.07,4.07,0,0,1,.68-7,4.09,4.09,0,0,1,4,.39,103.75,103.75,0,0,1,38.15,51,4.08,4.08,0,0,1-2.79,5,3.89,3.89,0,0,1-1.12.16"></path> <path class="cls-5" d="M153.77,280.91a4.06,4.06,0,0,1-3.91-2.94,97.34,97.34,0,0,0-35.06-46.62,4.07,4.07,0,0,1,.68-7,4.09,4.09,0,0,1,4,.39,103.75,103.75,0,0,1,38.15,51,4.08,4.08,0,0,1-2.79,5A3.89,3.89,0,0,1,153.77,280.91Z"></path> <path class="cls-7" d="M153.77,280.91a4.06,4.06,0,0,1-4-5.05c.35-1.4,8.89-34.42,38.53-51.35a4.07,4.07,0,0,1,4,7.06c-26.65,15.23-34.59,46-34.67,46.26a4.07,4.07,0,0,1-3.94,3.08"></path> <path class="cls-5" d="M153.77,280.91a4.06,4.06,0,0,1-4-5.05c.35-1.4,8.89-34.42,38.53-51.35a4.07,4.07,0,0,1,4,7.06c-26.65,15.23-34.59,46-34.67,46.26A4.07,4.07,0,0,1,153.77,280.91Z"></path> <path class="cls-7" d="M58.58,58.12a43.67,43.67,0,1,1-43.67,43.67A43.67,43.67,0,0,1,58.58,58.12"></path> <path class="cls-5" d="M58.58,58.12a43.67,43.67,0,1,1-43.67,43.67A43.67,43.67,0,0,1,58.58,58.12Z"></path> <path class="cls-3" d="M102.26,101.79A43.67,43.67,0,0,1,39.3,141,43.68,43.68,0,0,0,50.61,58.84a44.58,44.58,0,0,1,8-.72,43.68,43.68,0,0,1,43.68,43.67"></path> <path class="cls-5" d="M102.26,101.79A43.67,43.67,0,0,1,39.3,141,43.68,43.68,0,0,0,50.61,58.84a44.58,44.58,0,0,1,8-.72A43.68,43.68,0,0,1,102.26,101.79Z"></path> <path class="cls-6" d="M71.37,81.81a4.11,4.11,0,0,0-5.82,0L62.7,84.67V79.91a4.12,4.12,0,0,0-8.24,0v43.56a4.12,4.12,0,0,0,8.24,0V96.31l8.67-8.68a4.11,4.11,0,0,0,0-5.82"></path> <path class="cls-6" d="M54.46,204.83V146.46c0-3.4,1.85-6.15,4.12-6.15s4.12,2.75,4.12,6.15v58.37"></path> </g> </svg> 