<?xml version="1.0" encoding="UTF-8"?> <svg xmlns="http://www.w3.org/2000/svg" xmlns:xlink="http://www.w3.org/1999/xlink" id="Слой_1" data-name="Слой 1" viewBox="0 0 300 300"> <defs> <style>.cls-1,.cls-4{fill:none;}.cls-2{clip-path:url(#clip-path);}.cls-3{fill:#a6a6a6;}.cls-4{stroke:#083a59;stroke-miterlimit:10;stroke-width:1.67px;}.cls-5{fill:#083a59;}.cls-6{fill:#d3d3d3;}.cls-7{fill:#a3e440;}</style> <clipPath id="clip-path"> <rect class="cls-1" width="300" height="300"></rect> </clipPath> </defs> <g class="cls-2"> <path class="cls-3" d="M150,300A150,150,0,1,0,0,150,150,150,0,0,0,150,300"></path> <polyline class="cls-3" points="145.97 111.72 145.97 85.55 117.92 55.05 89.86 24.55 61.81 55.05 33.76 85.55 33.76 172.33 116.21 172.33 145.97 172.33 145.97 85.55"></polyline> <polyline class="cls-4" points="145.97 111.72 145.97 85.55 117.92 55.05 89.86 24.55 61.81 55.05 33.76 85.55 33.76 172.33 116.21 172.33 145.97 172.33 145.97 85.55"></polyline> <polygon class="cls-5" points="33.46 94.58 25.89 87.74 89.87 16.93 153.68 87.74 146.1 94.57 89.86 32.17 33.46 94.58"></polygon> <rect class="cls-6" x="53.45" y="109.98" width="26.1" height="44.82"></rect> <rect class="cls-4" x="53.45" y="109.98" width="26.1" height="44.82"></rect> <path class="cls-5" d="M81.35,156.6H51.65V108.18h29.7ZM55.25,153h22.5V111.78H55.25Z"></path> <rect class="cls-6" x="102.06" y="109.98" width="26.1" height="44.82"></rect> <rect class="cls-4" x="102.06" y="109.98" width="26.1" height="44.82"></rect> <path class="cls-5" d="M130,156.6h-29.7V108.18H130ZM103.85,153h22.51V111.78H103.85Z"></path> <path class="cls-6" d="M99,65.19a9.6,9.6,0,1,1-9.6-9.6,9.6,9.6,0,0,1,9.6,9.6"></path> <path class="cls-4" d="M99,65.19a9.6,9.6,0,1,1-9.6-9.6A9.6,9.6,0,0,1,99,65.19Z"></path> <path class="cls-5" d="M89.41,76.59a11.4,11.4,0,1,1,11.4-11.4,11.41,11.41,0,0,1-11.4,11.4m0-19.2a7.8,7.8,0,1,0,7.8,7.8,7.81,7.81,0,0,0-7.8-7.8"></path> <path class="cls-3" d="M168.72,15.54a52,52,0,1,1-52,52,52,52,0,0,1,52-52"></path> <circle class="cls-4" cx="168.72" cy="67.57" r="52.03" transform="translate(99.86 235.77) rotate(-89.56)"></circle> <path class="cls-5" d="M220.75,67.57a52,52,0,0,1-75,46.69A52,52,0,0,0,159.22,16.4a53,53,0,0,1,9.5-.86,52,52,0,0,1,52,52"></path> <path class="cls-4" d="M220.75,67.57a52,52,0,0,1-75,46.69A52,52,0,0,0,159.22,16.4a53,53,0,0,1,9.5-.86A52,52,0,0,1,220.75,67.57Z"></path> <path class="cls-5" d="M184,43.77a4.9,4.9,0,0,0-6.93,0l-3.4,3.39V41.51a4.91,4.91,0,0,0-9.81,0v51.9a4.91,4.91,0,0,0,9.81,0V61L184,50.71a4.9,4.9,0,0,0,0-6.94"></path> <path class="cls-5" d="M163.81,174.92V123.45a4.91,4.91,0,1,1,9.81,0v50.82"></path> <path class="cls-7" d="M252.24,129.18c0,41.57-18.74,40.83-41.86,40.83s-41.86.74-41.86-40.83,23.62-88.49,41.86-88.49,41.86,46.91,41.86,88.49"></path> <path class="cls-6" d="M252.24,129.18c0,41.57-18.74,40.83-41.86,40.83s-41.86.74-41.86-40.83,23.62-88.49,41.86-88.49,41.86,46.91,41.86,88.49"></path> <path class="cls-4" d="M252.24,129.18c0,41.57-18.74,40.83-41.86,40.83s-41.86.74-41.86-40.83,23.62-88.49,41.86-88.49S252.24,87.6,252.24,129.18Z"></path> <path class="cls-5" d="M252.23,129.17c0,41.58-18.73,40.84-41.85,40.84-4.32,0-8.47,0-12.39-.21,17.08-1,29.48-6.8,29.48-40.63,0-32.52-14.45-68.3-29.48-82.35,4.18-3.91,8.41-6.13,12.39-6.13,18.24,0,41.85,46.91,41.85,88.48"></path> <path class="cls-4" d="M252.23,129.17c0,41.58-18.73,40.84-41.85,40.84-4.32,0-8.47,0-12.39-.21,17.08-1,29.48-6.8,29.48-40.63,0-32.52-14.45-68.3-29.48-82.35,4.18-3.91,8.41-6.13,12.39-6.13C228.62,40.69,252.23,87.6,252.23,129.17Z"></path> <path class="cls-3" d="M216.32,209.62V145.89l19.26-19.27a5.94,5.94,0,0,0-8.39-8.4l-10.87,10.87V100a5.94,5.94,0,1,0-11.88,0v43.42h0v66.19"></path> <path class="cls-4" d="M216.32,209.62V145.89l19.26-19.27a5.94,5.94,0,0,0-8.39-8.4l-10.87,10.87V100a5.94,5.94,0,1,0-11.88,0v43.42h0v66.19"></path> <path class="cls-3" d="M257.93,245.37l-43.84-70a4.38,4.38,0,0,0-3.66-2h-61l15.05,44.46,26.83,34.21h62.91a4.42,4.42,0,0,0,3.83-2.26,4.32,4.32,0,0,0-.17-4.45"></path> <path class="cls-4" d="M257.93,245.37l-43.84-70a4.38,4.38,0,0,0-3.66-2h-61l15.05,44.46,26.83,34.21h62.91a4.42,4.42,0,0,0,3.83-2.26A4.32,4.32,0,0,0,257.93,245.37Z"></path> <path class="cls-6" d="M191.36,252.08H153.83l-4.36-8.71-4.35,8.71H114.35a4.5,4.5,0,0,1-3.74-2.09,4.42,4.42,0,0,1-.18-4.18l34.69-69.09h8.71Z"></path> <path class="cls-4" d="M191.36,252.08H153.83l-4.36-8.71-4.35,8.71H114.35a4.5,4.5,0,0,1-3.74-2.09,4.42,4.42,0,0,1-.18-4.18l34.69-69.09h8.71Z"></path> <polygon class="cls-6" points="191.36 252.08 153.83 252.08 149.47 243.37 149.47 176.72 153.83 176.72 191.36 252.08"></polygon> <polygon class="cls-4" points="191.36 252.08 153.83 252.08 149.47 243.37 149.47 176.72 153.83 176.72 191.36 252.08"></polygon> <path class="cls-5" d="M153.83,176.72v75.36h-8.71V176.72l.44-.87a4.37,4.37,0,0,1,7.84,0Z"></path> <path class="cls-6" d="M62.21,126.51a35.38,35.38,0,1,1-35.38,35.38,35.38,35.38,0,0,1,35.38-35.38"></path> <circle class="cls-4" cx="62.21" cy="161.89" r="35.38" transform="translate(-75.82 56.88) rotate(-31.72)"></circle> <path class="cls-3" d="M97.59,161.89a35.37,35.37,0,0,1-51,31.74,35.38,35.38,0,0,0,9.17-66.53,35.39,35.39,0,0,1,41.83,34.79"></path> <path class="cls-4" d="M97.59,161.89a35.37,35.37,0,0,1-51,31.74,35.38,35.38,0,0,0,9.17-66.53,35.39,35.39,0,0,1,41.83,34.79Z"></path> <path class="cls-5" d="M72.57,145.71a3.31,3.31,0,0,0-4.71,0L65.55,148v-3.85a3.34,3.34,0,0,0-6.67,0v35.28a3.34,3.34,0,1,0,6.67,0v-22l7-7a3.33,3.33,0,0,0,0-4.71"></path> <path class="cls-5" d="M58.88,245.36V198.08c0-2.75,1.49-5,3.33-5s3.34,2.23,3.34,5v47.28"></path> </g> </svg> 