<?xml version="1.0" encoding="UTF-8"?> <svg xmlns="http://www.w3.org/2000/svg" xmlns:xlink="http://www.w3.org/1999/xlink" id="Слой_1" data-name="Слой 1" viewBox="0 0 300 300"> <defs> <style>.cls-1,.cls-7{fill:none;}.cls-2{clip-path:url(#clip-path);}.cls-3{fill:#f9d4cd;}.cls-4{fill:#083a59;}.cls-5{fill:#fff0ee;}.cls-6{fill:#e6eef4;}.cls-7{stroke:#083a59;stroke-miterlimit:10;stroke-width:1.67px;}</style> <clipPath id="clip-path"> <rect class="cls-1" width="300" height="300"></rect> </clipPath> </defs> <g class="cls-2"> <path class="cls-3" d="M150,300A150,150,0,1,0,0,150,150,150,0,0,0,150,300"></path> <polygon class="cls-4" points="120.19 170.99 262.57 170.99 262.57 54.78 37.43 54.78 37.43 170.99 120.19 170.99"></polygon> <rect class="cls-5" x="42.63" y="59.98" width="214.74" height="105.81"></rect> <path class="cls-4" d="M82.56,67.23a11.09,11.09,0,1,0-22.18,0Z"></path> <path class="cls-6" d="M78.75,67.23A7.28,7.28,0,1,1,71.47,60a7.28,7.28,0,0,1,7.28,7.28"></path> <path class="cls-7" d="M78.75,67.23A7.28,7.28,0,1,1,71.47,60,7.28,7.28,0,0,1,78.75,67.23Z"></path> <path class="cls-4" d="M74.05,56.84c0,1.07-1.17,1.94-2.6,1.94s-2.6-.87-2.6-1.94V50.06c0-1.08,1.17-1.94,2.6-1.94s2.6.86,2.6,1.94Z"></path> <path class="cls-4" d="M237,67.23a11.09,11.09,0,1,0-22.18,0Z"></path> <path class="cls-6" d="M233.18,67.23A7.28,7.28,0,1,1,225.9,60a7.27,7.27,0,0,1,7.28,7.28"></path> <path class="cls-7" d="M233.18,67.23A7.28,7.28,0,1,1,225.9,60,7.27,7.27,0,0,1,233.18,67.23Z"></path> <path class="cls-4" d="M228.49,56.84c0,1.07-1.17,1.94-2.6,1.94s-2.6-.87-2.6-1.94V50.06c0-1.08,1.16-1.94,2.6-1.94s2.6.86,2.6,1.94Z"></path> <path class="cls-4" d="M161.09,67.23a11.09,11.09,0,0,0-22.18,0Z"></path> <path class="cls-6" d="M157.28,67.23A7.28,7.28,0,1,1,150,60a7.28,7.28,0,0,1,7.28,7.28"></path> <path class="cls-7" d="M157.28,67.23A7.28,7.28,0,1,1,150,60,7.28,7.28,0,0,1,157.28,67.23Z"></path> <path class="cls-4" d="M152.58,56.84c0,1.07-1.16,1.94-2.6,1.94s-2.6-.87-2.6-1.94V50.06c0-1.08,1.17-1.94,2.6-1.94s2.6.86,2.6,1.94Z"></path> <polygon class="cls-4" points="86.16 122.28 82.43 122.28 82.43 108.13 77.34 108.13 77.34 104.87 91.23 104.87 91.23 108.13 86.16 108.13 86.16 122.28"></polygon> <polygon class="cls-4" points="109.27 122.28 105.54 122.28 105.54 114.97 97.31 114.97 97.31 122.28 93.61 122.28 93.61 104.87 97.31 104.87 97.31 111.71 105.54 111.71 105.54 104.87 109.27 104.87 109.27 122.28"></polygon> <polygon class="cls-4" points="125.02 122.28 112.69 122.28 112.69 104.87 125.02 104.87 125.02 108.13 116.4 108.13 116.4 111.81 124.83 111.81 124.83 115.08 116.4 115.08 116.4 119.02 125.02 119.02 125.02 122.28"></polygon> <polygon class="cls-4" points="153.47 122.28 149.74 122.28 149.74 110.09 144.83 122.28 143.21 122.28 138.31 110.09 138.31 122.28 134.6 122.28 134.6 104.87 139.79 104.87 144.02 115.39 148.25 104.87 153.47 104.87 153.47 122.28"></polygon> <path class="cls-4" d="M165.17,122.6a8.89,8.89,0,0,1-6.52-2.55,9.42,9.42,0,0,1,0-12.93,9.68,9.68,0,0,1,13.06,0,9.44,9.44,0,0,1,0,13,8.92,8.92,0,0,1-6.54,2.54m-3.82-4.92a4.84,4.84,0,0,0,3.82,1.62,4.91,4.91,0,0,0,3.84-1.62,6.47,6.47,0,0,0,0-8.19,4.94,4.94,0,0,0-3.84-1.62,4.87,4.87,0,0,0-3.82,1.62,6.51,6.51,0,0,0,0,8.19"></path> <polygon class="cls-4" points="186.42 122.28 181.78 122.28 175.04 104.87 179.27 104.87 184.1 118.26 188.9 104.87 193.13 104.87 186.42 122.28"></polygon> <rect class="cls-4" x="194.75" y="104.87" width="3.71" height="17.41"></rect> <polygon class="cls-4" points="214.23 122.28 201.9 122.28 201.9 104.87 214.23 104.87 214.23 108.13 205.61 108.13 205.61 111.81 214.04 111.81 214.04 115.08 205.61 115.08 205.61 119.02 214.23 119.02 214.23 122.28"></polygon> <polygon class="cls-4" points="222.66 252.62 228.24 252.62 228.24 230.29 225.45 228.43 222.66 230.29 222.66 252.62"></polygon> <polygon class="cls-7" points="222.66 252.62 228.24 252.62 228.24 230.29 225.45 228.43 222.66 230.29 222.66 252.62"></polygon> <polygon class="cls-5" points="183.58 252.62 189.16 252.62 189.16 230.29 186.37 227.5 183.58 230.29 183.58 252.62"></polygon> <polygon class="cls-7" points="183.58 252.62 189.16 252.62 189.16 230.29 186.37 227.5 183.58 230.29 183.58 252.62"></polygon> <polygon class="cls-5" points="164.04 219.13 161.25 224.71 164.04 230.29 189.16 230.29 189.16 219.13 164.04 219.13"></polygon> <polygon class="cls-7" points="164.04 219.13 161.25 224.71 164.04 230.29 189.16 230.29 189.16 219.13 164.04 219.13"></polygon> <path class="cls-4" d="M187.12,202.38a5.49,5.49,0,0,1-.75-2.79V188.42h11.17v11.17a5.59,5.59,0,0,1-.75,2.79L192,204.24Z"></path> <path class="cls-7" d="M187.12,202.38a5.49,5.49,0,0,1-.75-2.79V188.42h11.17v11.17a5.59,5.59,0,0,1-.75,2.79L192,204.24Z"></path> <path class="cls-5" d="M215,202.38a5.59,5.59,0,0,1-.75-2.79V188.42h11.17v11.17a5.49,5.49,0,0,1-.75,2.79l-4.83,1.86Z"></path> <path class="cls-7" d="M215,202.38a5.59,5.59,0,0,1-.75-2.79V188.42h11.17v11.17a5.49,5.49,0,0,1-.75,2.79l-4.83,1.86Z"></path> <rect class="cls-5" x="158.46" y="174.47" width="5.58" height="78.16"></rect> <rect class="cls-7" x="158.46" y="174.46" width="5.58" height="78.16"></rect> <polygon class="cls-5" points="222.66 219.13 222.66 224.71 222.66 230.29 247.78 230.29 249.64 224.71 247.78 219.13 222.66 219.13"></polygon> <polygon class="cls-7" points="222.66 219.13 222.66 224.71 222.66 230.29 247.78 230.29 249.64 224.71 247.78 219.13 222.66 219.13"></polygon> <rect class="cls-4" x="247.78" y="174.47" width="5.58" height="78.16"></rect> <rect class="cls-7" x="247.78" y="174.46" width="5.58" height="78.16"></rect> <polygon class="cls-4" points="203.12 207.96 203.12 241.46 204.49 243.32 205.91 241.46 207.77 224.71 205.91 207.96 204.42 206.1 203.12 207.96"></polygon> <polygon class="cls-7" points="203.12 207.96 203.12 241.46 204.49 243.32 205.91 241.46 207.77 224.71 205.91 207.96 204.42 206.1 203.12 207.96"></polygon> <polygon class="cls-4" points="208.7 207.96 207.31 206.1 205.91 207.96 205.91 241.46 207.31 243.32 208.7 241.46 208.7 207.96"></polygon> <polygon class="cls-7" points="208.7 207.96 207.31 206.1 205.91 207.96 205.91 241.46 207.31 243.32 208.7 241.46 208.7 207.96"></polygon> <polygon class="cls-5" points="175.21 202.38 175.21 207.96 205.91 207.96 207.77 205.42 205.91 202.38 175.21 202.38"></polygon> <polygon class="cls-7" points="175.21 202.38 175.21 207.96 205.91 207.96 207.77 205.42 205.91 202.38 175.21 202.38"></polygon> <rect class="cls-4" x="205.91" y="202.38" width="30.71" height="5.58"></rect> <rect class="cls-7" x="205.91" y="202.38" width="30.71" height="5.58"></rect> <polygon class="cls-4" points="194.75 241.46 194.75 252.62 200.33 252.62 200.33 247.04 205.91 247.04 207.77 244.25 205.91 241.46 194.75 241.46"></polygon> <polygon class="cls-7" points="194.75 241.46 194.75 252.62 200.33 252.62 200.33 247.04 205.91 247.04 207.77 244.25 205.91 241.46 194.75 241.46"></polygon> <polygon class="cls-4" points="205.91 241.46 205.91 247.04 211.49 247.04 211.49 252.62 217.07 252.62 217.07 241.46 205.91 241.46"></polygon> <polygon class="cls-7" points="205.91 241.46 205.91 247.04 211.49 247.04 211.49 252.62 217.07 252.62 217.07 241.46 205.91 241.46"></polygon> <polygon class="cls-4" points="114.45 252.62 120.03 252.62 120.03 230.29 117.24 228.43 114.45 230.29 114.45 252.62"></polygon> <polygon class="cls-7" points="114.45 252.62 120.03 252.62 120.03 230.29 117.24 228.43 114.45 230.29 114.45 252.62"></polygon> <polygon class="cls-5" points="75.37 252.62 80.95 252.62 80.95 230.29 78.16 227.5 75.37 230.29 75.37 252.62"></polygon> <polygon class="cls-7" points="75.37 252.62 80.95 252.62 80.95 230.29 78.16 227.5 75.37 230.29 75.37 252.62"></polygon> <polygon class="cls-5" points="55.83 219.13 53.04 224.71 55.83 230.29 80.95 230.29 80.95 219.13 55.83 219.13"></polygon> <polygon class="cls-7" points="55.83 219.13 53.04 224.71 55.83 230.29 80.95 230.29 80.95 219.13 55.83 219.13"></polygon> <path class="cls-4" d="M78.91,202.38a5.49,5.49,0,0,1-.75-2.79V188.42H89.33v11.17a5.59,5.59,0,0,1-.75,2.79l-4.84,1.86Z"></path> <path class="cls-7" d="M78.91,202.38a5.49,5.49,0,0,1-.75-2.79V188.42H89.33v11.17a5.59,5.59,0,0,1-.75,2.79l-4.84,1.86Z"></path> <path class="cls-5" d="M106.82,202.38a5.49,5.49,0,0,1-.75-2.79V188.42h11.17v11.17a5.49,5.49,0,0,1-.75,2.79l-4.83,1.86Z"></path> <path class="cls-7" d="M106.82,202.38a5.49,5.49,0,0,1-.75-2.79V188.42h11.17v11.17a5.49,5.49,0,0,1-.75,2.79l-4.83,1.86Z"></path> <rect class="cls-5" x="50.25" y="174.47" width="5.58" height="78.16"></rect> <rect class="cls-7" x="50.25" y="174.46" width="5.58" height="78.16"></rect> <polygon class="cls-5" points="114.45 219.13 114.45 224.71 114.45 230.29 139.57 230.29 141.43 224.71 139.57 219.13 114.45 219.13"></polygon> <polygon class="cls-7" points="114.45 219.13 114.45 224.71 114.45 230.29 139.57 230.29 141.43 224.71 139.57 219.13 114.45 219.13"></polygon> <rect class="cls-4" x="139.57" y="174.47" width="5.58" height="78.16"></rect> <rect class="cls-7" x="139.57" y="174.46" width="5.58" height="78.16"></rect> <polygon class="cls-4" points="94.91 207.96 94.91 241.46 96.27 243.32 97.7 241.46 99.56 224.71 97.7 207.96 96.21 206.1 94.91 207.96"></polygon> <polygon class="cls-7" points="94.91 207.96 94.91 241.46 96.27 243.32 97.7 241.46 99.56 224.71 97.7 207.96 96.21 206.1 94.91 207.96"></polygon> <polygon class="cls-4" points="100.49 207.96 99.1 206.1 97.7 207.96 97.7 241.46 99.1 243.32 100.49 241.46 100.49 207.96"></polygon> <polygon class="cls-7" points="100.49 207.96 99.1 206.1 97.7 207.96 97.7 241.46 99.1 243.32 100.49 241.46 100.49 207.96"></polygon> <polygon class="cls-5" points="67 202.38 67 207.96 97.7 207.96 99.56 205.42 97.7 202.38 67 202.38"></polygon> <polygon class="cls-7" points="67 202.38 67 207.96 97.7 207.96 99.56 205.42 97.7 202.38 67 202.38"></polygon> <rect class="cls-4" x="97.7" y="202.38" width="30.71" height="5.58"></rect> <rect class="cls-7" x="97.7" y="202.38" width="30.71" height="5.58"></rect> <polygon class="cls-4" points="86.53 241.46 86.53 252.62 92.12 252.62 92.12 247.04 97.7 247.04 99.56 244.25 97.7 241.46 86.53 241.46"></polygon> <polygon class="cls-7" points="86.53 241.46 86.53 252.62 92.12 252.62 92.12 247.04 97.7 247.04 99.56 244.25 97.7 241.46 86.53 241.46"></polygon> <polygon class="cls-4" points="97.7 241.46 97.7 247.04 103.28 247.04 103.28 252.62 108.86 252.62 108.86 241.46 97.7 241.46"></polygon> <polygon class="cls-7" points="97.7 241.46 97.7 247.04 103.28 247.04 103.28 252.62 108.86 252.62 108.86 241.46 97.7 241.46"></polygon> </g> </svg> 