<?xml version="1.0" encoding="UTF-8"?> <svg xmlns="http://www.w3.org/2000/svg" xmlns:xlink="http://www.w3.org/1999/xlink" id="Слой_1" data-name="Слой 1" viewBox="0 0 300 300"> <defs> <style>.cls-1,.cls-7,.cls-9{fill:none;}.cls-2{clip-path:url(#clip-path);}.cls-3{fill:#cce3f5;}.cls-4{clip-path:url(#clip-path-2);}.cls-5{fill:#083a59;}.cls-6{fill:#98caec;}.cls-7,.cls-9{stroke:#083a59;stroke-miterlimit:10;}.cls-7{stroke-width:3.34px;}.cls-8{fill:#51a8de;}.cls-9{stroke-width:1.67px;}.cls-10{fill:#e1b470;}</style> <clipPath id="clip-path"> <rect class="cls-1" width="300" height="299.99"></rect> </clipPath> <clipPath id="clip-path-2"> <path class="cls-1" d="M149,0A150,150,0,1,0,151,0Z"></path> </clipPath> </defs> <g class="cls-2"> <path class="cls-3" d="M150,300A150,150,0,1,0,0,150,150,150,0,0,0,150,300"></path> </g> <g class="cls-4"> <path class="cls-5" d="M154.26,321.45V268.33c0-3.17,2.28-5.74,5.1-5.74s5.09,2.57,5.09,5.74v53.12"></path> <path class="cls-5" d="M207,323.67v-83c0-3.16,2.28-5.73,5.09-5.73s5.1,2.57,5.1,5.73v83"></path> <path class="cls-6" d="M155.78,174.89c25.18,0,45.6,23,45.6,51.3s-20.42,51.3-45.6,51.3-45.61-23-45.61-51.3,20.42-51.3,45.61-51.3"></path> <ellipse class="cls-7" cx="155.78" cy="226.19" rx="45.6" ry="51.3"></ellipse> <path class="cls-8" d="M201.38,226.19c0,28.33-20.42,51.3-45.6,51.3a42.38,42.38,0,0,1-28.42-11.17,41.06,41.06,0,0,0,12.9,2.08c25.18,0,45.6-23,45.6-51.3,0-16.25-6.71-30.73-17.18-40.12,18.9,6.25,32.7,25.92,32.7,49.21"></path> <path class="cls-6" d="M226.12,65.93a45.61,45.61,0,1,1-45.6,45.6,45.61,45.61,0,0,1,45.6-45.6"></path> <path class="cls-9" d="M226.12,65.93a45.61,45.61,0,1,1-45.6,45.6A45.61,45.61,0,0,1,226.12,65.93Z"></path> <path class="cls-8" d="M270.73,112.2a45.65,45.65,0,0,1-56.18,44.38,45.62,45.62,0,0,0,0-88.75,45.65,45.65,0,0,1,56.18,44.37"></path> <path class="cls-6" d="M285.86,128.05a45.61,45.61,0,1,1-45.6,45.6,45.6,45.6,0,0,1,45.6-45.6"></path> <circle class="cls-7" cx="285.86" cy="173.65" r="45.6" transform="translate(-44.69 122.61) rotate(-22.5)"></circle> <path class="cls-8" d="M331.47,173.65a45.65,45.65,0,0,1-57.59,44,45.62,45.62,0,0,0,6-89.23,45.66,45.66,0,0,1,51.62,45.21"></path> <path class="cls-5" d="M228.33,305.17v-68a5.1,5.1,0,0,1,10.19,0v68"></path> <path class="cls-6" d="M256.59,254.67a35.6,35.6,0,0,1-35.6-35.6V141.21a35.6,35.6,0,0,1,71.2,0v77.86a35.6,35.6,0,0,1-35.6,35.6"></path> <path class="cls-9" d="M256.59,254.67a35.6,35.6,0,0,1-35.6-35.6V141.21a35.6,35.6,0,0,1,71.2,0v77.86A35.6,35.6,0,0,1,256.59,254.67Z"></path> <path class="cls-8" d="M292.19,141.21v77.86a35.64,35.64,0,0,1-44.35,34.52,35.61,35.61,0,0,0,26.86-34.52V141.21a35.59,35.59,0,0,0-26.86-34.51,35.08,35.08,0,0,1,8.75-1.09,35.59,35.59,0,0,1,35.6,35.6"></path> <path class="cls-5" d="M261.69,302.4V219.26l9.78-9.79a5.09,5.09,0,0,0-7.2-7.21l-2.58,2.59V193.72h0V173.8a5.1,5.1,0,0,0-10.19,0v7.62l-5.14-5.13a5.09,5.09,0,1,0-7.2,7.2l12.34,12.34v21.31h0V302.4"></path> <path class="cls-6" d="M75.26,165.59A35.6,35.6,0,0,1,39.66,130V80.16a35.6,35.6,0,0,1,71.2,0V130a35.6,35.6,0,0,1-35.6,35.59"></path> <path class="cls-9" d="M75.26,165.59A35.6,35.6,0,0,1,39.66,130V80.16a35.6,35.6,0,0,1,71.2,0V130A35.6,35.6,0,0,1,75.26,165.59Z"></path> <path class="cls-8" d="M110.86,80.16V130a35.61,35.61,0,0,1-45.32,34.25A35.6,35.6,0,0,0,91.43,130V80.16A35.65,35.65,0,0,0,65.54,45.9a35.87,35.87,0,0,1,9.72-1.34,35.61,35.61,0,0,1,35.6,35.6"></path> <path class="cls-9" d="M110.86,80.16V130a35.61,35.61,0,0,1-45.32,34.25A35.6,35.6,0,0,0,91.43,130V80.16A35.65,35.65,0,0,0,65.54,45.9a35.87,35.87,0,0,1,9.72-1.34,35.61,35.61,0,0,1,35.6,35.6Z"></path> <path class="cls-5" d="M80.35,307.14v-177l9.79-9.79a5.09,5.09,0,0,0-7.2-7.2l-2.59,2.58V104.65h0V84.73a5.1,5.1,0,1,0-10.19,0v7.61L65,87.21a5.09,5.09,0,0,0-7.21,7.2l12.34,12.34v21.32h0V307.14"></path> <path class="cls-9" d="M80.35,307.14v-177l9.79-9.79a5.09,5.09,0,0,0-7.2-7.2l-2.59,2.58V104.65h0V84.73a5.1,5.1,0,1,0-10.19,0v7.61L65,87.21a5.09,5.09,0,0,0-7.21,7.2l12.34,12.34v21.32h0V307.14"></path> <path class="cls-6" d="M125.16,123.05c29.86,0,54.06,26.08,54.06,58.25s-24.2,58.26-54.06,58.26-54-26.08-54-58.26,24.2-58.25,54.05-58.25"></path> <ellipse class="cls-9" cx="125.16" cy="181.3" rx="54.05" ry="58.25"></ellipse> <path class="cls-8" d="M179.22,181.3c0,32.17-24.2,58.25-54,58.25a50.5,50.5,0,0,1-23.87-6c25.14-5,44.18-28.74,44.18-57.28,0-22.94-12.3-42.77-30.18-52.27a50.21,50.21,0,0,1,9.87-1c29.85,0,54.05,26.08,54.05,58.24"></path> <path class="cls-5" d="M141,154.66a4.82,4.82,0,0,0-7.2,0l-3.53,3.81v-6.34a5.11,5.11,0,1,0-10.19,0v58.1a5.11,5.11,0,1,0,10.19,0V174L141,162.42a5.79,5.79,0,0,0,0-7.76"></path> <path class="cls-5" d="M120.07,321.45V269.32a5.11,5.11,0,1,1,10.19,0v52.13"></path> <path class="cls-6" d="M226.12,188.66c0,62.64-16.07,61.53-35.9,61.53s-35.89,1.11-35.89-61.53S174.58,55.34,190.22,55.34s35.9,70.68,35.9,133.32"></path> <path class="cls-9" d="M226.12,188.66c0,62.64-16.07,61.53-35.9,61.53s-35.89,1.11-35.89-61.53S174.58,55.34,190.22,55.34,226.12,126,226.12,188.66Z"></path> <path class="cls-8" d="M226.12,188.66c0,62.64-16.07,61.52-35.89,61.52-3.23,0-6.37,0-9.35-.19,15.29-1.14,26.55-8.91,26.55-61.33,0-50.61-13.23-106.45-26.55-126,3.17-4.66,6.34-7.27,9.35-7.27,15.64,0,35.89,70.68,35.89,133.32"></path> <path class="cls-9" d="M226.12,188.66c0,62.64-16.07,61.52-35.89,61.52-3.23,0-6.37,0-9.35-.19,15.29-1.14,26.55-8.91,26.55-61.33,0-50.61-13.23-106.45-26.55-126,3.17-4.66,6.34-7.27,9.35-7.27C205.87,55.34,226.12,126,226.12,188.66Z"></path> <path class="cls-5" d="M195.32,318.71V224.65l16.53-18a5.93,5.93,0,0,0,0-7.87,4.81,4.81,0,0,0-7.21,0l-9.32,10.17V187.64h0v-25a5.11,5.11,0,1,0-10.19,0v11.63l-7.24-7.91a4.8,4.8,0,0,0-7.2,0,5.9,5.9,0,0,0,0,7.86l14.44,15.77v32.41h0v96.36"></path> <path class="cls-9" d="M195.32,318.71V224.65l16.53-18a5.93,5.93,0,0,0,0-7.87,4.81,4.81,0,0,0-7.21,0l-9.32,10.17V187.64h0v-25a5.11,5.11,0,1,0-10.19,0v11.63l-7.24-7.91a4.8,4.8,0,0,0-7.2,0,5.9,5.9,0,0,0,0,7.86l14.44,15.77v32.41h0v96.36"></path> <path class="cls-6" d="M-5.72,234.37c0,48.25,21.75,47.39,48.57,47.39s48.58.86,48.58-47.39S64,131.69,42.85,131.69-5.72,186.12-5.72,234.37"></path> <path class="cls-9" d="M-5.72,234.37c0,48.25,21.75,47.39,48.57,47.39s48.58.86,48.58-47.39S64,131.69,42.85,131.69-5.72,186.12-5.72,234.37Z"></path> <path class="cls-8" d="M91.43,234.37c0,48.25-21.75,47.39-48.57,47.39-3.49,0-6.88,0-10.16-.07,21.95-.53,38.41-5.34,38.41-47.32,0-40.78-19.57-86-38.41-99,3.45-2.39,6.88-3.69,10.16-3.69,21.16,0,48.57,54.43,48.57,102.68"></path> <path class="cls-9" d="M91.43,234.37c0,48.25-21.75,47.39-48.57,47.39-3.49,0-6.88,0-10.16-.07,21.95-.53,38.41-5.34,38.41-47.32,0-40.78-19.57-86-38.41-99,3.45-2.39,6.88-3.69,10.16-3.69C64,131.69,91.43,186.12,91.43,234.37Z"></path> <path class="cls-6" d="M137.75,242.9c0,38.82-16.08,38.13-35.9,38.13S66,281.72,66,242.9s20.26-82.6,35.9-82.6,35.9,43.79,35.9,82.6"></path> <path class="cls-9" d="M137.75,242.9c0,38.82-16.08,38.13-35.9,38.13S66,281.72,66,242.9s20.26-82.6,35.9-82.6S137.75,204.09,137.75,242.9Z"></path> <path class="cls-8" d="M137.74,242.9c0,38.82-16.06,38.12-35.89,38.12-3.7,0-7.26,0-10.62-.19,14.64-.92,25.28-6.35,25.28-37.93,0-30.36-12.39-63.76-25.28-76.88,3.58-3.65,7.21-5.73,10.62-5.73,15.64,0,35.89,43.8,35.89,82.61"></path> <path class="cls-9" d="M137.74,242.9c0,38.82-16.06,38.12-35.89,38.12-3.7,0-7.26,0-10.62-.19,14.64-.92,25.28-6.35,25.28-37.93,0-30.36-12.39-63.76-25.28-76.88,3.58-3.65,7.21-5.73,10.62-5.73C117.49,160.29,137.74,204.09,137.74,242.9Z"></path> <path class="cls-5" d="M106.94,318V258.51l16.53-18a5.89,5.89,0,0,0,0-7.84,4.81,4.81,0,0,0-7.21,0l-9.32,10.14V215.68a5.11,5.11,0,1,0-10.18,0v40.53h0V318"></path> <path class="cls-9" d="M106.94,318V258.51l16.53-18a5.89,5.89,0,0,0,0-7.84,4.81,4.81,0,0,0-7.21,0l-9.32,10.14V215.68a5.11,5.11,0,1,0-10.18,0v40.53h0V318"></path> <path class="cls-10" d="M308.3,305.17V264.48l8.36-8.37a5.09,5.09,0,1,0-7.2-7.21l-1.16,1.16V235.53a5.1,5.1,0,1,0-10.19,0v26.83h0v42.8"></path> <path class="cls-5" d="M48,305.17V250.91h0V223.47l7.82-7.82a5.09,5.09,0,0,0-7.2-7.21l-.62.62V195a5.1,5.1,0,1,0-10.19,0v43.57l-6.41-6.41a5.09,5.09,0,0,0-7.2,7.2L37.76,253v52.15"></path> <path class="cls-9" d="M48,305.17V250.91h0V223.47l7.82-7.82a5.09,5.09,0,0,0-7.2-7.21l-.62.62V195a5.1,5.1,0,1,0-10.19,0v43.57l-6.41-6.41a5.09,5.09,0,0,0-7.2,7.2L37.76,253v52.15"></path> </g> <g class="cls-2"> <path class="cls-5" d="M135.62,50.49s8.79-5.91,25,1.4c0,0,6.07-24.86,40.53-29.8,0,0-35.88,9.74-35.86,45.83,0,0-12.3-18.42-29.71-17.43"></path> <path class="cls-5" d="M101.41,18.15s17.07,2.3,20,19c0,0,6.31-7.15,15.91-4.93,0,0-8.37-4.67-13.78-.49,0,0-2.46-15.18-22.16-13.62"></path> </g> </svg> 