<?xml version="1.0" encoding="UTF-8"?> <svg xmlns="http://www.w3.org/2000/svg" xmlns:xlink="http://www.w3.org/1999/xlink" id="Слой_1" data-name="Слой 1" viewBox="0 0 300 300"> <defs> <style>.cls-1,.cls-5{fill:none;}.cls-2{clip-path:url(#clip-path);}.cls-3{fill:#f0d9b8;}.cls-4{fill:#f2e9dd;}.cls-5{stroke:#083a59;stroke-miterlimit:10;stroke-width:1.67px;}.cls-6{fill:#083a59;}</style> <clipPath id="clip-path"> <rect class="cls-1" width="300" height="300"></rect> </clipPath> </defs> <g class="cls-2"> <path class="cls-3" d="M150,300A150,150,0,1,0,0,150,150,150,0,0,0,150,300"></path> <path class="cls-4" d="M228,179.47v62.86a6,6,0,0,1-6,6H66.37a6,6,0,0,1-6-6V179.47Z"></path> <path class="cls-5" d="M228,179.47v62.86a6,6,0,0,1-6,6H66.37a6,6,0,0,1-6-6V179.47Z"></path> <rect class="cls-3" x="60.38" y="179.47" width="167.62" height="8.98"></rect> <rect class="cls-5" x="60.38" y="179.47" width="167.62" height="8.98"></rect> <rect class="cls-6" x="108.27" y="236.34" width="71.84" height="11.97"></rect> <rect class="cls-5" x="108.27" y="236.34" width="71.84" height="11.97"></rect> <rect class="cls-3" x="114.26" y="224.37" width="59.87" height="11.98"></rect> <rect class="cls-5" x="114.26" y="224.37" width="59.87" height="11.98"></rect> <rect class="cls-3" x="204.06" y="179.47" width="11.97" height="68.84"></rect> <rect class="cls-5" x="204.06" y="179.47" width="11.97" height="68.84"></rect> <rect class="cls-3" x="54.4" y="167.5" width="119.73" height="11.98"></rect> <rect class="cls-5" x="54.4" y="167.5" width="119.73" height="11.98"></rect> <path class="cls-6" d="M234,173.49v50.88a6,6,0,1,1-12,0V185.46a6,6,0,1,0-12,0v15a6,6,0,1,1-12,0v-9a6,6,0,1,0-12,0v18a6,6,0,0,1-12,0V167.5H228a6,6,0,0,1,6,6"></path> <path class="cls-5" d="M234,173.49v50.88a6,6,0,1,1-12,0V185.46a6,6,0,1,0-12,0v15a6,6,0,1,1-12,0v-9a6,6,0,1,0-12,0v18a6,6,0,0,1-12,0V167.5H228A6,6,0,0,1,234,173.49Z"></path> <path class="cls-6" d="M72.36,89.67a21,21,0,1,1,41.9,0v3H72.36Z"></path> <path class="cls-5" d="M72.36,89.67a21,21,0,1,1,41.9,0v3H72.36Z"></path> <path class="cls-4" d="M78.34,118c-5.47-3.84-9-9.75-9-16.36,0-11.57,10.72-21,24-21s24,9.39,24,21a20.06,20.06,0,0,1-9,16.35Z"></path> <path class="cls-5" d="M78.34,118c-5.47-3.84-9-9.75-9-16.36,0-11.57,10.72-21,24-21s24,9.39,24,21a20.06,20.06,0,0,1-9,16.35Z"></path> <path class="cls-3" d="M63.38,167.5V149.59a12,12,0,0,1,8.68-11.52l12.27-3.5v-6h18v6l12.27,3.5a12,12,0,0,1,8.68,11.52V167.5Z"></path> <path class="cls-5" d="M63.38,167.5V149.59a12,12,0,0,1,8.68-11.52l12.27-3.5v-6h18v6l12.27,3.5a12,12,0,0,1,8.68,11.52V167.5Z"></path> <path class="cls-3" d="M95.36,101.15c7.74,4.23,12.92,3.49,12.92,3.49v12a15,15,0,0,1-29.94,0v-12s6.64,1.66,15-2.44Z"></path> <path class="cls-5" d="M95.36,101.15c7.74,4.23,12.92,3.49,12.92,3.49v12a15,15,0,0,1-29.94,0v-12s6.64,1.66,15-2.44Z"></path> <rect class="cls-6" x="78.34" y="149.54" width="29.93" height="17.96"></rect> <rect class="cls-5" x="78.34" y="149.54" width="29.93" height="17.96"></rect> <rect class="cls-6" x="72.35" y="179.47" width="11.97" height="68.84"></rect> <rect class="cls-5" x="72.35" y="179.47" width="11.97" height="68.84"></rect> <rect class="cls-3" x="78.34" y="158.52" width="29.93" height="8.98"></rect> <rect class="cls-5" x="78.34" y="158.52" width="29.93" height="8.98"></rect> <path class="cls-6" d="M219,149.54c0-3.7,1.79-5.45,5-8.23s7-6.13,7-12.73-3.89-10-7-12.73-5-4.52-5-8.23,1.79-5.44,5-8.21,7-6.14,7-12.73v-3h-6v3c0,3.7-1.79,5.45-5,8.22s-7,6.13-7,12.72,3.89,10,7,12.73,5,4.53,5,8.23-1.79,5.45-5,8.23-7,6.13-7,12.73v3h6Z"></path> <path class="cls-6" d="M183.11,131.58c0-3.7,1.79-5.45,5-8.23s7-6.13,7-12.72-3.89-10-7-12.74-5-4.52-5-8.23,1.79-5.44,5-8.21,7-6.14,7-12.73v-3h-6v3c0,3.7-1.79,5.45-5,8.22s-7,6.13-7,12.72,3.89,10,7,12.74,5,4.52,5,8.23-1.79,5.44-5,8.22-7,6.13-7,12.73v3h6Z"></path> <path class="cls-6" d="M147.19,149.54c0-3.7,1.79-5.45,5-8.23s7-6.13,7-12.73-3.88-10-7-12.73-5-4.52-5-8.23,1.79-5.44,5-8.21,7-6.14,7-12.73v-3h-6v3c0,3.7-1.79,5.45-5,8.22s-7,6.13-7,12.72,3.89,10,7,12.73,5,4.53,5,8.23-1.79,5.45-5,8.23-7,6.13-7,12.73v3h6Z"></path> </g> </svg> 