<?xml version="1.0" encoding="UTF-8"?> <svg xmlns="http://www.w3.org/2000/svg" xmlns:xlink="http://www.w3.org/1999/xlink" id="Слой_1" data-name="Слой 1" viewBox="0 0 300 300"> <defs> <style>.cls-1,.cls-4{fill:none;}.cls-2{clip-path:url(#clip-path);}.cls-3{fill:#a16e68;}.cls-4{stroke:#083a59;stroke-miterlimit:10;stroke-width:1.67px;}.cls-5{fill:#c1b0ae;}.cls-6{fill:#083a59;}</style> <clipPath id="clip-path"> <rect class="cls-1" width="300" height="300"></rect> </clipPath> </defs> <g class="cls-2"> <path class="cls-3" d="M150,300A150,150,0,1,0,0,150,150,150,0,0,0,150,300"></path> <polygon class="cls-3" points="191.1 152.25 191.1 81.25 197.94 81.25 197.94 150.05 191.1 152.25"></polygon> <polygon class="cls-4" points="191.1 152.25 191.1 81.25 197.94 81.25 197.94 150.05 191.1 152.25"></polygon> <polygon class="cls-3" points="166.02 150.05 166.02 81.25 172.86 81.25 172.86 152.25 166.02 150.05"></polygon> <polygon class="cls-4" points="166.02 150.05 166.02 81.25 172.86 81.25 172.86 152.25 166.02 150.05"></polygon> <path class="cls-5" d="M166,150.05v17a6.83,6.83,0,0,0,6.84,6.83H191.1a6.83,6.83,0,0,0,6.84-6.83v-17Z"></path> <path class="cls-4" d="M166,150.05v17a6.83,6.83,0,0,0,6.84,6.83H191.1a6.83,6.83,0,0,0,6.84-6.83v-17Z"></path> <polygon class="cls-3" points="229.86 152.25 229.86 81.25 236.71 81.25 236.71 150.05 229.86 152.25"></polygon> <polygon class="cls-4" points="229.86 152.25 229.86 81.25 236.71 81.25 236.71 150.05 229.86 152.25"></polygon> <polygon class="cls-3" points="204.78 150.05 204.78 81.25 211.62 81.25 211.62 152.25 204.78 150.05"></polygon> <polygon class="cls-4" points="204.78 150.05 204.78 81.25 211.62 81.25 211.62 152.25 204.78 150.05"></polygon> <path class="cls-5" d="M204.78,150.05v17a6.83,6.83,0,0,0,6.84,6.83h18.25a6.84,6.84,0,0,0,6.84-6.83v-17Z"></path> <path class="cls-4" d="M204.78,150.05v17a6.83,6.83,0,0,0,6.84,6.83h18.25a6.84,6.84,0,0,0,6.84-6.83v-17Z"></path> <path class="cls-6" d="M201.36,78H163.55a10.27,10.27,0,0,0-10.24,9.62L147.08,187.9H143v6.84h14.58V187.9h-3.64l6.2-99.85a3.44,3.44,0,0,1,3.42-3.21h37.81l2.28-3.58Z"></path> <path class="cls-4" d="M201.36,78H163.55a10.27,10.27,0,0,0-10.24,9.62L147.08,187.9H143v6.84h14.58V187.9h-3.64l6.2-99.85a3.44,3.44,0,0,1,3.42-3.21h37.81l2.28-3.58Z"></path> <path class="cls-6" d="M255.65,187.9,249.42,87.62A10.28,10.28,0,0,0,239.18,78H201.36v6.84h37.82a3.42,3.42,0,0,1,3.41,3.21l6.2,99.85h-3.63v6.84h14.57V187.9Z"></path> <path class="cls-4" d="M255.65,187.9,249.42,87.62A10.28,10.28,0,0,0,239.18,78H201.36v6.84h37.82a3.42,3.42,0,0,1,3.41,3.21l6.2,99.85h-3.63v6.84h14.57V187.9Z"></path> <rect class="cls-5" x="85.64" y="17.37" width="10.39" height="15.59"></rect> <rect class="cls-4" x="85.64" y="17.37" width="10.39" height="15.59"></rect> <rect class="cls-5" x="90.84" y="17.37" width="5.2" height="15.59"></rect> <rect class="cls-4" x="90.84" y="17.37" width="5.2" height="15.59"></rect> <path class="cls-3" d="M124.15,191.27,115.82,83.19H122V72.8h-7l-1-13.86h8V48.55h-8.73a22.51,22.51,0,0,0-44.89,0H59.66V58.94h8l-1,13.86h-7V83.19h6.19L57.53,191.27Z"></path> <path class="cls-4" d="M124.15,191.27,115.82,83.19H122V72.8h-7l-1-13.86h8V48.55h-8.73a22.51,22.51,0,0,0-44.89,0H59.66V58.94h8l-1,13.86h-7V83.19h6.19L57.53,191.27Z"></path> <path class="cls-3" d="M90.84,191.27h33.31L115.82,83.19H122V72.8h-7l-1-13.86h8V48.55h-8.73A22.55,22.55,0,0,0,90.84,27.76Z"></path> <path class="cls-4" d="M90.84,191.27h33.31L115.82,83.19H122V72.8h-7l-1-13.86h8V48.55h-8.73A22.55,22.55,0,0,0,90.84,27.76Z"></path> <rect class="cls-6" x="85.64" y="163.56" width="10.39" height="25.98"></rect> <rect class="cls-4" x="85.64" y="163.56" width="10.39" height="25.98"></rect> <polygon class="cls-5" points="78.08 53.75 103.59 53.75 104.63 78 77.05 78 78.08 53.75"></polygon> <polygon class="cls-4" points="78.08 53.75 103.59 53.75 104.63 78 77.05 78 78.08 53.75"></polygon> <polygon class="cls-5" points="90.84 78 104.63 78 103.59 53.74 90.84 53.74 90.84 78"></polygon> <polygon class="cls-4" points="90.84 78 104.63 78 103.59 53.74 90.84 53.74 90.84 78"></polygon> <rect class="cls-6" x="90.84" y="163.56" width="5.2" height="25.98"></rect> <rect class="cls-4" x="90.84" y="163.56" width="5.2" height="25.98"></rect> <rect class="cls-6" x="47.19" y="184.34" width="86.95" height="10.39"></rect> <rect class="cls-4" x="47.19" y="184.34" width="86.95" height="10.39"></rect> <rect class="cls-6" x="90.84" y="184.34" width="43.3" height="10.39"></rect> <rect class="cls-4" x="90.84" y="184.34" width="43.3" height="10.39"></rect> <polygon class="cls-6" points="64.46 101.2 62.86 121.99 118.81 121.99 117.21 101.2 64.46 101.2"></polygon> <polygon class="cls-4" points="64.46 101.2 62.86 121.99 118.81 121.99 117.21 101.2 64.46 101.2"></polygon> <polygon class="cls-6" points="121.21 153.17 119.61 132.38 62.06 132.38 60.46 153.17 121.21 153.17"></polygon> <polygon class="cls-4" points="121.21 153.17 119.61 132.38 62.06 132.38 60.46 153.17 121.21 153.17"></polygon> <polygon class="cls-6" points="90.66 153.17 121.21 153.17 119.61 132.38 90.66 132.38 90.66 153.17"></polygon> <polygon class="cls-4" points="90.66 153.17 121.21 153.17 119.61 132.38 90.66 132.38 90.66 153.17"></polygon> <polygon class="cls-6" points="90.66 121.99 118.81 121.99 117.21 101.2 90.66 101.2 90.66 121.99"></polygon> <polygon class="cls-4" points="90.66 121.99 118.81 121.99 117.21 101.2 90.66 101.2 90.66 121.99"></polygon> <path class="cls-6" d="M89.72,229.05A22.31,22.31,0,1,0,112,251.36a22.34,22.34,0,0,0-22.31-22.31m0,37.6A15.29,15.29,0,1,1,105,251.36a15.32,15.32,0,0,1-15.29,15.29"></path> <path class="cls-4" d="M89.72,229.05A22.31,22.31,0,1,0,112,251.36,22.34,22.34,0,0,0,89.72,229.05Zm0,37.6A15.29,15.29,0,1,1,105,251.36,15.32,15.32,0,0,1,89.72,266.65Z"></path> <path class="cls-6" d="M89.72,229.05v7a15.29,15.29,0,1,1,0,30.58v7a22.31,22.31,0,1,0,0-44.62"></path> <path class="cls-4" d="M89.72,229.05v7a15.29,15.29,0,1,1,0,30.58v7a22.31,22.31,0,1,0,0-44.62Z"></path> <path class="cls-3" d="M112.28,228.55a3.52,3.52,0,0,1-3.23-2.13l-6.45-15a3.51,3.51,0,0,1,6.46-2.77l6.44,15a3.51,3.51,0,0,1-1.84,4.61,3.39,3.39,0,0,1-1.38.29"></path> <path class="cls-4" d="M112.28,228.55a3.52,3.52,0,0,1-3.23-2.13l-6.45-15a3.51,3.51,0,0,1,6.46-2.77l6.44,15a3.51,3.51,0,0,1-1.84,4.61A3.39,3.39,0,0,1,112.28,228.55Z"></path> <path class="cls-6" d="M164.92,229.05a22.31,22.31,0,1,0,22.31,22.31,22.34,22.34,0,0,0-22.31-22.31m0,37.6a15.29,15.29,0,1,1,15.29-15.29,15.31,15.31,0,0,1-15.29,15.29"></path> <path class="cls-4" d="M164.92,229.05a22.31,22.31,0,1,0,22.31,22.31A22.34,22.34,0,0,0,164.92,229.05Zm0,37.6a15.29,15.29,0,1,1,15.29-15.29A15.31,15.31,0,0,1,164.92,266.65Z"></path> <path class="cls-5" d="M152.78,213.28a3.52,3.52,0,0,0-3.78-1.42l-37.61,9.78a3.56,3.56,0,0,0-1.78,1.11L87.05,249.07a3.51,3.51,0,0,0,2.66,5.8h33.85a3.5,3.5,0,0,0,2.83-1.45l26.33-36.09a3.52,3.52,0,0,0,.06-4.05M97.35,247.85l13.92-16.25,7,16.25Zm27-3.54-7.25-16.9,24.14-6.28Z"></path> <path class="cls-4" d="M152.78,213.28a3.52,3.52,0,0,0-3.78-1.42l-37.61,9.78a3.56,3.56,0,0,0-1.78,1.11L87.05,249.07a3.51,3.51,0,0,0,2.66,5.8h33.85a3.5,3.5,0,0,0,2.83-1.45l26.33-36.09A3.52,3.52,0,0,0,152.78,213.28ZM97.35,247.85l13.92-16.25,7,16.25Zm27-3.54-7.25-16.9,24.14-6.28Z"></path> <path class="cls-6" d="M116,213.51H101a3.52,3.52,0,0,1,0-7h15a3.52,3.52,0,0,1,0,7"></path> <path class="cls-4" d="M116,213.51H101a3.52,3.52,0,0,1,0-7h15a3.52,3.52,0,0,1,0,7Z"></path> <path class="cls-3" d="M149,211.86l-24.65,6.41v7.25l16.9-4.39-16.9,23.18v10.47a3.52,3.52,0,0,0,2-1.35l26.33-36.1a3.51,3.51,0,0,0-3.72-5.47"></path> <path class="cls-4" d="M149,211.86l-24.65,6.41v7.25l16.9-4.39-16.9,23.18v10.47a3.52,3.52,0,0,0,2-1.35l26.33-36.1a3.51,3.51,0,0,0-3.72-5.47Z"></path> <path class="cls-5" d="M168.16,250l-18.8-45.13a3.51,3.51,0,1,0-6.48,2.71l18.8,45.12a3.51,3.51,0,0,0,6.48-2.7"></path> <path class="cls-4" d="M168.16,250l-18.8-45.13a3.51,3.51,0,1,0-6.48,2.71l18.8,45.12a3.51,3.51,0,0,0,6.48-2.7Z"></path> <path class="cls-6" d="M160.73,201.36a3.51,3.51,0,0,0-4.44-2.22L145,202.9a3.51,3.51,0,1,0,2.22,6.66l11.28-3.76a3.5,3.5,0,0,0,2.22-4.44"></path> <path class="cls-4" d="M160.73,201.36a3.51,3.51,0,0,0-4.44-2.22L145,202.9a3.51,3.51,0,1,0,2.22,6.66l11.28-3.76A3.5,3.5,0,0,0,160.73,201.36Z"></path> <path class="cls-6" d="M164.92,229.05v7a15.29,15.29,0,1,1,0,30.58v7a22.31,22.31,0,0,0,0-44.62"></path> <path class="cls-4" d="M164.92,229.05v7a15.29,15.29,0,1,1,0,30.58v7a22.31,22.31,0,0,0,0-44.62Z"></path> </g> </svg> 