<?xml version="1.0" encoding="UTF-8"?> <svg xmlns="http://www.w3.org/2000/svg" xmlns:xlink="http://www.w3.org/1999/xlink" id="Слой_1" data-name="Слой 1" viewBox="0 0 300 300"> <defs> <style>.cls-1,.cls-5{fill:none;}.cls-2{clip-path:url(#clip-path);}.cls-3{fill:#80a4b6;}.cls-4{fill:#083a59;}.cls-5{stroke:#083a59;stroke-miterlimit:10;stroke-width:1.67px;}.cls-6{fill:#c9dbe2;}</style> <clipPath id="clip-path"> <rect class="cls-1" width="300" height="300"></rect> </clipPath> </defs> <g class="cls-2"> <path class="cls-3" d="M150,300A150,150,0,1,0,0,150,150,150,0,0,0,150,300"></path> <path class="cls-4" d="M65.08,238.61H240.46c-6.78,9.65-17.21,16.46-28.93,16.46H55.2Z"></path> <path class="cls-5" d="M65.08,238.61H240.46c-6.78,9.65-17.21,16.46-28.93,16.46H55.2Z"></path> <path class="cls-6" d="M245,230.39H70l9.87-16.46H248.56A42,42,0,0,1,245,230.39"></path> <path class="cls-5" d="M245,230.39H70l9.87-16.46H248.56A42,42,0,0,1,245,230.39Z"></path> <path class="cls-3" d="M245,230.39a45.5,45.5,0,0,1-4.57,8.22H65.08L70,230.39Z"></path> <path class="cls-5" d="M245,230.39a45.5,45.5,0,0,1-4.57,8.22H65.08L70,230.39Z"></path> <path class="cls-4" d="M186.85,90.51V16.46a4.12,4.12,0,0,0-8.23,0V90.51a4.12,4.12,0,1,0,8.23,0"></path> <polygon class="cls-4" points="119.53 185.13 75.77 185.13 166.28 32.92 166.28 70.74 119.53 185.13"></polygon> <polygon class="cls-5" points="119.53 185.13 75.77 185.13 166.28 32.92 166.28 70.74 119.53 185.13"></polygon> <rect class="cls-4" x="182.74" y="201.59" width="8.23" height="8.23"></rect> <path class="cls-6" d="M160.37,154.31C150,163,136.21,174.65,116.44,192.68L174.51,50.61l25.32,54.67c-12.36,26.19-16.6,29.81-39.46,49"></path> <path class="cls-5" d="M160.37,154.31C150,163,136.21,174.65,116.44,192.68L174.51,50.61l25.32,54.67C187.47,131.47,183.23,135.09,160.37,154.31Z"></path> <path class="cls-3" d="M178.62,201.59H118.89c21.31-19.53,36-31.9,46.78-41,21.76-18.3,27.55-23.22,38.63-45.67l40.14,86.65Z"></path> <path class="cls-5" d="M178.62,201.59H118.89c21.31-19.53,36-31.9,46.78-41,21.76-18.3,27.55-23.22,38.63-45.67l40.14,86.65Z"></path> <path class="cls-4" d="M165.67,160.61c-10.8,9.08-25.47,21.45-46.78,41H112.8l3.64-8.91c19.77-18,33.61-29.67,43.94-38.36,22.85-19.22,27.09-22.84,39.45-49l4.47,9.64c-11.08,22.45-16.87,27.38-38.63,45.68"></path> <path class="cls-5" d="M165.67,160.61c-10.8,9.08-25.47,21.45-46.78,41H112.8l3.64-8.91c19.77-18,33.61-29.67,43.94-38.36,22.85-19.22,27.09-22.84,39.45-49l4.47,9.64C193.22,137.38,187.43,142.31,165.67,160.61Z"></path> </g> </svg> 